<svg width="1675" height="1381" viewBox="0 0 1675 1381" fill="none" xmlns="http://www.w3.org/2000/svg">
<path d="M327.918 1345.25V1342.55H334.038V1325.99H329.178V1323.29H332.598C333.054 1323.29 333.402 1323.17 333.642 1322.93C333.906 1322.66 334.038 1322.3 334.038 1321.85V1320.05H337.098V1342.55H343.218V1345.25H327.918Z" fill="white"/>
<path d="M539.935 1345.25V1342.55L550.195 1331.57C551.635 1330.01 552.355 1328.45 552.355 1326.89C552.355 1325.45 551.959 1324.34 551.167 1323.58C550.399 1322.78 549.295 1322.39 547.855 1322.39C546.559 1322.39 545.467 1322.81 544.579 1323.65C543.715 1324.46 543.187 1325.48 542.995 1326.71H539.935C540.295 1324.6 541.171 1322.9 542.563 1321.63C543.979 1320.34 545.743 1319.69 547.855 1319.69C549.319 1319.69 550.627 1320 551.779 1320.62C552.931 1321.25 553.819 1322.11 554.443 1323.22C555.091 1324.3 555.415 1325.52 555.415 1326.89C555.415 1328.16 555.091 1329.36 554.443 1330.49C553.819 1331.59 553.039 1332.65 552.103 1333.66L543.787 1342.55H555.775V1345.25H539.935Z" fill="white"/>
<path d="M760.627 1345.61C758.347 1345.61 756.451 1344.97 754.939 1343.7C753.451 1342.43 752.587 1340.72 752.347 1338.59H755.407C755.599 1339.86 756.175 1340.9 757.135 1341.72C758.119 1342.51 759.283 1342.91 760.627 1342.91C762.307 1342.91 763.591 1342.51 764.479 1341.72C765.391 1340.9 765.847 1339.8 765.847 1338.41C765.847 1337.02 765.391 1335.92 764.479 1335.13C763.591 1334.32 762.307 1333.91 760.627 1333.91H758.827V1331.39H760.627C762.139 1331.39 763.327 1330.98 764.191 1330.16C765.055 1329.35 765.487 1328.26 765.487 1326.89C765.487 1325.52 765.055 1324.43 764.191 1323.61C763.327 1322.8 762.139 1322.39 760.627 1322.39C759.379 1322.39 758.299 1322.8 757.387 1323.61C756.499 1324.4 755.959 1325.44 755.767 1326.71H752.707C753.067 1324.48 753.955 1322.75 755.371 1321.52C756.787 1320.3 758.539 1319.69 760.627 1319.69C763.123 1319.69 765.067 1320.35 766.459 1321.67C767.851 1322.96 768.547 1324.7 768.547 1326.89C768.547 1329.7 767.287 1331.56 764.767 1332.47C766.087 1332.92 767.107 1333.67 767.827 1334.7C768.547 1335.73 768.907 1336.97 768.907 1338.41C768.907 1340.66 768.175 1342.43 766.711 1343.7C765.247 1344.97 763.219 1345.61 760.627 1345.61Z" fill="white"/>
<path d="M978.957 1345.25H975.897V1339.31H964.917V1336.61L974.637 1320.05H978.957V1336.61H982.197V1339.31H978.957V1345.25ZM975.717 1323.65L968.157 1336.61H975.897V1323.65H975.717Z" fill="white"/>
<path d="M1186.58 1345.61C1184.57 1345.61 1182.79 1345.02 1181.25 1343.84C1179.72 1342.64 1178.73 1340.89 1178.3 1338.59H1181.36C1181.7 1339.98 1182.35 1341.05 1183.31 1341.79C1184.27 1342.54 1185.36 1342.91 1186.58 1342.91C1188.21 1342.91 1189.52 1342.39 1190.51 1341.36C1191.49 1340.33 1191.98 1338.92 1191.98 1337.15C1191.98 1335.35 1191.49 1333.91 1190.51 1332.83C1189.52 1331.75 1188.21 1331.21 1186.58 1331.21C1184.49 1331.21 1182.87 1332.11 1181.72 1333.91H1178.84L1180.1 1320.05H1193.6V1322.75H1182.77L1182.08 1330.31H1182.26C1183.63 1329.11 1185.25 1328.51 1187.12 1328.51C1188.61 1328.51 1189.95 1328.87 1191.15 1329.59C1192.38 1330.31 1193.33 1331.33 1194 1332.65C1194.69 1333.94 1195.04 1335.44 1195.04 1337.15C1195.04 1339.76 1194.29 1341.83 1192.77 1343.34C1191.26 1344.85 1189.2 1345.61 1186.58 1345.61Z" fill="white"/>
<path d="M1399.51 1345.61C1396.87 1345.61 1394.77 1344.83 1393.21 1343.27C1391.65 1341.71 1390.87 1339.55 1390.87 1336.79C1390.87 1334.24 1391.69 1331.66 1393.32 1329.05L1398.97 1320.05H1402.39L1395.73 1330.31H1395.91C1396.37 1329.92 1396.94 1329.62 1397.64 1329.41C1398.36 1329.17 1399.1 1329.05 1399.87 1329.05C1401.45 1329.05 1402.87 1329.4 1404.12 1330.09C1405.39 1330.79 1406.37 1331.76 1407.07 1333.01C1407.79 1334.26 1408.15 1335.7 1408.15 1337.33C1408.15 1338.94 1407.79 1340.38 1407.07 1341.65C1406.35 1342.9 1405.33 1343.87 1404.01 1344.56C1402.71 1345.26 1401.21 1345.61 1399.51 1345.61ZM1399.51 1342.91C1401.14 1342.91 1402.47 1342.39 1403.51 1341.36C1404.56 1340.3 1405.09 1338.96 1405.09 1337.33C1405.09 1335.7 1404.56 1334.36 1403.51 1333.33C1402.47 1332.28 1401.14 1331.75 1399.51 1331.75C1397.88 1331.75 1396.53 1332.28 1395.48 1333.33C1394.45 1334.36 1393.93 1335.7 1393.93 1337.33C1393.93 1338.96 1394.45 1340.3 1395.48 1341.36C1396.53 1342.39 1397.88 1342.91 1399.51 1342.91Z" fill="white"/>
<path d="M1610.38 1345.25H1607.14L1617.04 1322.75H1604.08V1320.05H1620.28V1322.75L1610.38 1345.25Z" fill="white"/>
<path d="M63.0987 1170.09C64.8747 1170.09 66.4107 1170.62 67.7067 1171.67C69.0027 1172.71 69.9987 1174.19 70.6947 1176.14C71.3907 1178.08 71.7387 1180.39 71.7387 1183.05C71.7387 1185.71 71.3907 1188.02 70.6947 1189.96C69.9987 1191.91 69.0027 1193.41 67.7067 1194.46C66.4107 1195.49 64.8747 1196.01 63.0987 1196.01C61.3227 1196.01 59.7867 1195.49 58.4907 1194.46C57.1947 1193.41 56.1987 1191.91 55.5027 1189.96C54.8067 1188.02 54.4587 1185.71 54.4587 1183.05C54.4587 1180.39 54.8067 1178.08 55.5027 1176.14C56.1987 1174.19 57.1947 1172.71 58.4907 1171.67C59.7867 1170.62 61.3227 1170.09 63.0987 1170.09ZM57.5187 1183.05C57.5187 1185.93 57.8907 1188.25 58.6347 1190L65.7267 1173.62C64.9827 1173.07 64.1067 1172.79 63.0987 1172.79C61.2987 1172.79 59.9187 1173.67 58.9587 1175.42C57.9987 1177.17 57.5187 1179.71 57.5187 1183.05ZM63.0987 1193.31C64.8987 1193.31 66.2787 1192.43 67.2387 1190.68C68.1987 1188.93 68.6787 1186.39 68.6787 1183.05C68.6787 1180.12 68.3187 1177.82 67.5987 1176.14L60.4347 1192.45C61.1787 1193.02 62.0667 1193.31 63.0987 1193.31Z" fill="white"/>
<path d="M29.7492 1080.05V1077.35H35.8692V1060.79H31.0092V1058.09H34.4292C34.8852 1058.09 35.2332 1057.97 35.4732 1057.73C35.7372 1057.47 35.8692 1057.11 35.8692 1056.65V1054.85H38.9292V1077.35H45.0492V1080.05H29.7492ZM58.5351 1054.49C60.3111 1054.49 61.8471 1055.02 63.1431 1056.08C64.4391 1057.11 65.4351 1058.6 66.1311 1060.54C66.8271 1062.48 67.1751 1064.79 67.1751 1067.45C67.1751 1070.12 66.8271 1072.42 66.1311 1074.36C65.4351 1076.31 64.4391 1077.81 63.1431 1078.86C61.8471 1079.9 60.3111 1080.41 58.5351 1080.41C56.7591 1080.41 55.2231 1079.9 53.9271 1078.86C52.6311 1077.81 51.6351 1076.31 50.9391 1074.36C50.2431 1072.42 49.8951 1070.12 49.8951 1067.45C49.8951 1064.79 50.2431 1062.48 50.9391 1060.54C51.6351 1058.6 52.6311 1057.11 53.9271 1056.08C55.2231 1055.02 56.7591 1054.49 58.5351 1054.49ZM52.9551 1067.45C52.9551 1070.33 53.3271 1072.65 54.0711 1074.4L61.1631 1058.02C60.4191 1057.47 59.5431 1057.19 58.5351 1057.19C56.7351 1057.19 55.3551 1058.07 54.3951 1059.82C53.4351 1061.57 52.9551 1064.12 52.9551 1067.45ZM58.5351 1077.71C60.3351 1077.71 61.7151 1076.84 62.6751 1075.08C63.6351 1073.33 64.1151 1070.79 64.1151 1067.45C64.1151 1064.52 63.7551 1062.22 63.0351 1060.54L55.8711 1076.85C56.6151 1077.42 57.5031 1077.71 58.5351 1077.71Z" fill="white"/>
<path d="M28.9212 964.454V961.754L39.1812 950.774C40.6212 949.214 41.3412 947.654 41.3412 946.094C41.3412 944.654 40.9452 943.55 40.1532 942.782C39.3852 941.99 38.2812 941.594 36.8412 941.594C35.5452 941.594 34.4532 942.014 33.5652 942.854C32.7012 943.67 32.1732 944.69 31.9812 945.914H28.9212C29.2812 943.802 30.1572 942.11 31.5492 940.838C32.9652 939.542 34.7292 938.894 36.8412 938.894C38.3052 938.894 39.6132 939.206 40.7652 939.83C41.9172 940.454 42.8052 941.318 43.4292 942.422C44.0772 943.502 44.4012 944.726 44.4012 946.094C44.4012 947.366 44.0772 948.566 43.4292 949.694C42.8052 950.798 42.0252 951.854 41.0892 952.862L32.7732 961.754H44.7612V964.454H28.9212ZM58.5351 938.894C60.3111 938.894 61.8471 939.422 63.1431 940.478C64.4391 941.51 65.4351 942.998 66.1311 944.942C66.8271 946.886 67.1751 949.19 67.1751 951.854C67.1751 954.518 66.8271 956.822 66.1311 958.766C65.4351 960.71 64.4391 962.21 63.1431 963.266C61.8471 964.298 60.3111 964.814 58.5351 964.814C56.7591 964.814 55.2231 964.298 53.9271 963.266C52.6311 962.21 51.6351 960.71 50.9391 958.766C50.2431 956.822 49.8951 954.518 49.8951 951.854C49.8951 949.19 50.2431 946.886 50.9391 944.942C51.6351 942.998 52.6311 941.51 53.9271 940.478C55.2231 939.422 56.7591 938.894 58.5351 938.894ZM52.9551 951.854C52.9551 954.734 53.3271 957.05 54.0711 958.802L61.1631 942.422C60.4191 941.87 59.5431 941.594 58.5351 941.594C56.7351 941.594 55.3551 942.47 54.3951 944.222C53.4351 945.974 52.9551 948.518 52.9551 951.854ZM58.5351 962.114C60.3351 962.114 61.7151 961.238 62.6751 959.486C63.6351 957.734 64.1151 955.19 64.1151 951.854C64.1151 948.926 63.7551 946.622 63.0351 944.942L55.8711 961.25C56.6151 961.826 57.5031 962.114 58.5351 962.114Z" fill="white"/>
<path d="M36.7692 849.215C34.4892 849.215 32.5932 848.579 31.0812 847.307C29.5932 846.035 28.7292 844.331 28.4892 842.195H31.5492C31.7412 843.467 32.3172 844.511 33.2772 845.327C34.2612 846.119 35.4252 846.515 36.7692 846.515C38.4492 846.515 39.7332 846.119 40.6212 845.327C41.5332 844.511 41.9892 843.407 41.9892 842.015C41.9892 840.623 41.5332 839.531 40.6212 838.739C39.7332 837.923 38.4492 837.515 36.7692 837.515H34.9692V834.995H36.7692C38.2812 834.995 39.4692 834.587 40.3332 833.771C41.1972 832.955 41.6292 831.863 41.6292 830.495C41.6292 829.127 41.1972 828.035 40.3332 827.219C39.4692 826.403 38.2812 825.995 36.7692 825.995C35.5212 825.995 34.4412 826.403 33.5292 827.219C32.6412 828.011 32.1012 829.043 31.9092 830.315H28.8492C29.2092 828.083 30.0972 826.355 31.5132 825.131C32.9292 823.907 34.6812 823.295 36.7692 823.295C39.2652 823.295 41.2092 823.955 42.6012 825.275C43.9932 826.571 44.6892 828.311 44.6892 830.495C44.6892 833.303 43.4292 835.163 40.9092 836.075C42.2292 836.531 43.2492 837.275 43.9692 838.307C44.6892 839.339 45.0492 840.575 45.0492 842.015C45.0492 844.271 44.3172 846.035 42.8532 847.307C41.3892 848.579 39.3612 849.215 36.7692 849.215ZM58.5351 823.295C60.3111 823.295 61.8471 823.823 63.1431 824.879C64.4391 825.911 65.4351 827.399 66.1311 829.343C66.8271 831.287 67.1751 833.591 67.1751 836.255C67.1751 838.919 66.8271 841.223 66.1311 843.167C65.4351 845.111 64.4391 846.611 63.1431 847.667C61.8471 848.699 60.3111 849.215 58.5351 849.215C56.7591 849.215 55.2231 848.699 53.9271 847.667C52.6311 846.611 51.6351 845.111 50.9391 843.167C50.2431 841.223 49.8951 838.919 49.8951 836.255C49.8951 833.591 50.2431 831.287 50.9391 829.343C51.6351 827.399 52.6311 825.911 53.9271 824.879C55.2231 823.823 56.7591 823.295 58.5351 823.295ZM52.9551 836.255C52.9551 839.135 53.3271 841.451 54.0711 843.203L61.1631 826.823C60.4191 826.271 59.5431 825.995 58.5351 825.995C56.7351 825.995 55.3551 826.871 54.3951 828.623C53.4351 830.375 52.9551 832.919 52.9551 836.255ZM58.5351 846.515C60.3351 846.515 61.7151 845.639 62.6751 843.887C63.6351 842.135 64.1151 839.591 64.1151 836.255C64.1151 833.327 63.7551 831.023 63.0351 829.343L55.8711 845.651C56.6151 846.227 57.5031 846.515 58.5351 846.515Z" fill="white"/>
<path d="M42.1692 733.156H39.1092V727.216H28.1292V724.516L37.8492 707.956H42.1692V724.516H45.4092V727.216H42.1692V733.156ZM38.9292 711.556L31.3692 724.516H39.1092V711.556H38.9292ZM58.5351 707.596C60.3111 707.596 61.8471 708.124 63.1431 709.18C64.4391 710.212 65.4351 711.7 66.1311 713.644C66.8271 715.588 67.1751 717.892 67.1751 720.556C67.1751 723.22 66.8271 725.524 66.1311 727.468C65.4351 729.412 64.4391 730.912 63.1431 731.968C61.8471 733 60.3111 733.516 58.5351 733.516C56.7591 733.516 55.2231 733 53.9271 731.968C52.6311 730.912 51.6351 729.412 50.9391 727.468C50.2431 725.524 49.8951 723.22 49.8951 720.556C49.8951 717.892 50.2431 715.588 50.9391 713.644C51.6351 711.7 52.6311 710.212 53.9271 709.18C55.2231 708.124 56.7591 707.596 58.5351 707.596ZM52.9551 720.556C52.9551 723.436 53.3271 725.752 54.0711 727.504L61.1631 711.124C60.4191 710.572 59.5431 710.296 58.5351 710.296C56.7351 710.296 55.3551 711.172 54.3951 712.924C53.4351 714.676 52.9551 717.22 52.9551 720.556ZM58.5351 730.816C60.3351 730.816 61.7151 729.94 62.6751 728.188C63.6351 726.436 64.1151 723.892 64.1151 720.556C64.1151 717.628 63.7551 715.324 63.0351 713.644L55.8711 729.952C56.6151 730.528 57.5031 730.816 58.5351 730.816Z" fill="white"/>
<path d="M36.9492 617.919C34.9332 617.919 33.1572 617.331 31.6212 616.155C30.0852 614.955 29.1012 613.203 28.6692 610.899H31.7292C32.0652 612.291 32.7132 613.359 33.6732 614.103C34.6332 614.847 35.7252 615.219 36.9492 615.219C38.5812 615.219 39.8892 614.703 40.8732 613.671C41.8572 612.639 42.3492 611.235 42.3492 609.459C42.3492 607.659 41.8572 606.219 40.8732 605.139C39.8892 604.059 38.5812 603.519 36.9492 603.519C34.8612 603.519 33.2412 604.419 32.0892 606.219H29.2092L30.4692 592.359H43.9692V595.059H33.1332L32.4492 602.619H32.6292C33.9972 601.419 35.6172 600.819 37.4892 600.819C38.9772 600.819 40.3212 601.179 41.5212 601.899C42.7452 602.619 43.6932 603.639 44.3652 604.959C45.0612 606.255 45.4092 607.755 45.4092 609.459C45.4092 612.075 44.6532 614.139 43.1412 615.651C41.6292 617.163 39.5652 617.919 36.9492 617.919ZM58.5351 591.999C60.3111 591.999 61.8471 592.527 63.1431 593.583C64.4391 594.615 65.4351 596.103 66.1311 598.047C66.8271 599.991 67.1751 602.295 67.1751 604.959C67.1751 607.623 66.8271 609.927 66.1311 611.871C65.4351 613.815 64.4391 615.315 63.1431 616.371C61.8471 617.403 60.3111 617.919 58.5351 617.919C56.7591 617.919 55.2231 617.403 53.9271 616.371C52.6311 615.315 51.6351 613.815 50.9391 611.871C50.2431 609.927 49.8951 607.623 49.8951 604.959C49.8951 602.295 50.2431 599.991 50.9391 598.047C51.6351 596.103 52.6311 594.615 53.9271 593.583C55.2231 592.527 56.7591 591.999 58.5351 591.999ZM52.9551 604.959C52.9551 607.839 53.3271 610.155 54.0711 611.907L61.1631 595.527C60.4191 594.975 59.5431 594.699 58.5351 594.699C56.7351 594.699 55.3551 595.575 54.3951 597.327C53.4351 599.079 52.9551 601.623 52.9551 604.959ZM58.5351 615.219C60.3351 615.219 61.7151 614.343 62.6751 612.591C63.6351 610.839 64.1151 608.295 64.1151 604.959C64.1151 602.031 63.7551 599.727 63.0351 598.047L55.8711 614.355C56.6151 614.931 57.5031 615.219 58.5351 615.219Z" fill="white"/>
<path d="M36.9492 502.321C34.3092 502.321 32.2092 501.541 30.6492 499.981C29.0892 498.421 28.3092 496.261 28.3092 493.501C28.3092 490.957 29.1252 488.377 30.7572 485.761L36.4092 476.761H39.8292L33.1692 487.021H33.3492C33.8052 486.637 34.3812 486.337 35.0772 486.121C35.7972 485.881 36.5412 485.761 37.3092 485.761C38.8932 485.761 40.3092 486.109 41.5572 486.805C42.8292 487.501 43.8132 488.473 44.5092 489.721C45.2292 490.969 45.5892 492.409 45.5892 494.041C45.5892 495.649 45.2292 497.089 44.5092 498.361C43.7892 499.609 42.7692 500.581 41.4492 501.277C40.1532 501.973 38.6532 502.321 36.9492 502.321ZM36.9492 499.621C38.5812 499.621 39.9132 499.105 40.9452 498.073C42.0012 497.017 42.5292 495.673 42.5292 494.041C42.5292 492.409 42.0012 491.077 40.9452 490.045C39.9132 488.989 38.5812 488.461 36.9492 488.461C35.3172 488.461 33.9732 488.989 32.9172 490.045C31.8852 491.077 31.3692 492.409 31.3692 494.041C31.3692 495.673 31.8852 497.017 32.9172 498.073C33.9732 499.105 35.3172 499.621 36.9492 499.621ZM58.5351 476.401C60.3111 476.401 61.8471 476.929 63.1431 477.985C64.4391 479.017 65.4351 480.505 66.1311 482.449C66.8271 484.393 67.1751 486.697 67.1751 489.361C67.1751 492.025 66.8271 494.329 66.1311 496.273C65.4351 498.217 64.4391 499.717 63.1431 500.773C61.8471 501.805 60.3111 502.321 58.5351 502.321C56.7591 502.321 55.2231 501.805 53.9271 500.773C52.6311 499.717 51.6351 498.217 50.9391 496.273C50.2431 494.329 49.8951 492.025 49.8951 489.361C49.8951 486.697 50.2431 484.393 50.9391 482.449C51.6351 480.505 52.6311 479.017 53.9271 477.985C55.2231 476.929 56.7591 476.401 58.5351 476.401ZM52.9551 489.361C52.9551 492.241 53.3271 494.557 54.0711 496.309L61.1631 479.929C60.4191 479.377 59.5431 479.101 58.5351 479.101C56.7351 479.101 55.3551 479.977 54.3951 481.729C53.4351 483.481 52.9551 486.025 52.9551 489.361ZM58.5351 499.621C60.3351 499.621 61.7151 498.745 62.6751 496.993C63.6351 495.241 64.1151 492.697 64.1151 489.361C64.1151 486.433 63.7551 484.129 63.0351 482.449L55.8711 498.757C56.6151 499.333 57.5031 499.621 58.5351 499.621Z" fill="white"/>
<path d="M34.9692 386.362H31.7292L41.6292 363.862H28.6692V361.162H44.8692V363.862L34.9692 386.362ZM58.5351 360.802C60.3111 360.802 61.8471 361.33 63.1431 362.386C64.4391 363.418 65.4351 364.906 66.1311 366.85C66.8271 368.794 67.1751 371.098 67.1751 373.762C67.1751 376.426 66.8271 378.73 66.1311 380.674C65.4351 382.618 64.4391 384.118 63.1431 385.174C61.8471 386.206 60.3111 386.722 58.5351 386.722C56.7591 386.722 55.2231 386.206 53.9271 385.174C52.6311 384.118 51.6351 382.618 50.9391 380.674C50.2431 378.73 49.8951 376.426 49.8951 373.762C49.8951 371.098 50.2431 368.794 50.9391 366.85C51.6351 364.906 52.6311 363.418 53.9271 362.386C55.2231 361.33 56.7591 360.802 58.5351 360.802ZM52.9551 373.762C52.9551 376.642 53.3271 378.958 54.0711 380.71L61.1631 364.33C60.4191 363.778 59.5431 363.502 58.5351 363.502C56.7351 363.502 55.3551 364.378 54.3951 366.13C53.4351 367.882 52.9551 370.426 52.9551 373.762ZM58.5351 384.022C60.3351 384.022 61.7151 383.146 62.6751 381.394C63.6351 379.642 64.1151 377.098 64.1151 373.762C64.1151 370.834 63.7551 368.53 63.0351 366.85L55.8711 383.158C56.6151 383.734 57.5031 384.022 58.5351 384.022Z" fill="white"/>
<path d="M36.9492 271.127C35.3172 271.127 33.8652 270.803 32.5932 270.155C31.3452 269.507 30.3732 268.619 29.6772 267.491C29.0052 266.363 28.6692 265.115 28.6692 263.747C28.6692 262.427 29.0772 261.203 29.8932 260.075C30.7332 258.923 31.7052 258.167 32.8092 257.807C31.8012 257.303 30.9492 256.559 30.2532 255.575C29.5572 254.591 29.2092 253.475 29.2092 252.227C29.2092 250.907 29.5332 249.719 30.1812 248.663C30.8292 247.583 31.7292 246.743 32.8812 246.143C34.0572 245.519 35.4132 245.207 36.9492 245.207C38.4852 245.207 39.8292 245.519 40.9812 246.143C42.1572 246.743 43.0692 247.583 43.7172 248.663C44.3652 249.719 44.6892 250.907 44.6892 252.227C44.6892 253.475 44.3412 254.591 43.6452 255.575C42.9492 256.559 42.0972 257.303 41.0892 257.807C42.1932 258.167 43.1532 258.923 43.9692 260.075C44.8092 261.203 45.2292 262.427 45.2292 263.747C45.2292 265.115 44.8812 266.363 44.1852 267.491C43.5132 268.619 42.5412 269.507 41.2692 270.155C40.0212 270.803 38.5812 271.127 36.9492 271.127ZM36.9492 256.547C38.3652 256.547 39.4932 256.151 40.3332 255.359C41.1972 254.543 41.6292 253.499 41.6292 252.227C41.6292 250.955 41.1972 249.923 40.3332 249.131C39.4932 248.315 38.3652 247.907 36.9492 247.907C35.5332 247.907 34.3932 248.315 33.5292 249.131C32.6892 249.923 32.2692 250.955 32.2692 252.227C32.2692 253.499 32.6892 254.543 33.5292 255.359C34.3932 256.151 35.5332 256.547 36.9492 256.547ZM36.9492 268.427C38.5332 268.427 39.7932 267.995 40.7292 267.131C41.6892 266.243 42.1692 265.115 42.1692 263.747C42.1692 262.379 41.6892 261.263 40.7292 260.399C39.7932 259.511 38.5332 259.067 36.9492 259.067C35.3652 259.067 34.0932 259.511 33.1332 260.399C32.1972 261.263 31.7292 262.379 31.7292 263.747C31.7292 265.115 32.1972 266.243 33.1332 267.131C34.0932 267.995 35.3652 268.427 36.9492 268.427ZM58.5351 245.207C60.3111 245.207 61.8471 245.735 63.1431 246.791C64.4391 247.823 65.4351 249.311 66.1311 251.255C66.8271 253.199 67.1751 255.503 67.1751 258.167C67.1751 260.831 66.8271 263.135 66.1311 265.079C65.4351 267.023 64.4391 268.523 63.1431 269.579C61.8471 270.611 60.3111 271.127 58.5351 271.127C56.7591 271.127 55.2231 270.611 53.9271 269.579C52.6311 268.523 51.6351 267.023 50.9391 265.079C50.2431 263.135 49.8951 260.831 49.8951 258.167C49.8951 255.503 50.2431 253.199 50.9391 251.255C51.6351 249.311 52.6311 247.823 53.9271 246.791C55.2231 245.735 56.7591 245.207 58.5351 245.207ZM52.9551 258.167C52.9551 261.047 53.3271 263.363 54.0711 265.115L61.1631 248.735C60.4191 248.183 59.5431 247.907 58.5351 247.907C56.7351 247.907 55.3551 248.783 54.3951 250.535C53.4351 252.287 52.9551 254.831 52.9551 258.167ZM58.5351 268.427C60.3351 268.427 61.7151 267.551 62.6751 265.799C63.6351 264.047 64.1151 261.503 64.1151 258.167C64.1151 255.239 63.7551 252.935 63.0351 251.255L55.8711 267.563C56.6151 268.139 57.5031 268.427 58.5351 268.427Z" fill="white"/>
<path d="M34.0692 155.169L40.7292 144.909H40.5492C40.0452 145.341 39.4332 145.665 38.7132 145.881C37.9932 146.073 37.2852 146.169 36.5892 146.169C35.0052 146.169 33.5772 145.821 32.3052 145.125C31.0572 144.429 30.0732 143.457 29.3532 142.209C28.6572 140.961 28.3092 139.521 28.3092 137.889C28.3092 136.281 28.6692 134.853 29.3892 133.605C30.1092 132.333 31.1172 131.349 32.4132 130.653C33.7332 129.957 35.2452 129.609 36.9492 129.609C39.5892 129.609 41.6892 130.389 43.2492 131.949C44.8092 133.509 45.5892 135.669 45.5892 138.429C45.5892 140.973 44.7732 143.553 43.1412 146.169L37.4892 155.169H34.0692ZM36.9492 143.469C38.5812 143.469 39.9132 142.953 40.9452 141.921C42.0012 140.865 42.5292 139.521 42.5292 137.889C42.5292 136.257 42.0012 134.925 40.9452 133.893C39.9132 132.837 38.5812 132.309 36.9492 132.309C35.3172 132.309 33.9732 132.837 32.9172 133.893C31.8852 134.925 31.3692 136.257 31.3692 137.889C31.3692 139.521 31.8852 140.865 32.9172 141.921C33.9732 142.953 35.3172 143.469 36.9492 143.469ZM58.5351 129.609C60.3111 129.609 61.8471 130.137 63.1431 131.193C64.4391 132.225 65.4351 133.713 66.1311 135.657C66.8271 137.601 67.1751 139.905 67.1751 142.569C67.1751 145.233 66.8271 147.537 66.1311 149.481C65.4351 151.425 64.4391 152.925 63.1431 153.981C61.8471 155.013 60.3111 155.529 58.5351 155.529C56.7591 155.529 55.2231 155.013 53.9271 153.981C52.6311 152.925 51.6351 151.425 50.9391 149.481C50.2431 147.537 49.8951 145.233 49.8951 142.569C49.8951 139.905 50.2431 137.601 50.9391 135.657C51.6351 133.713 52.6311 132.225 53.9271 131.193C55.2231 130.137 56.7591 129.609 58.5351 129.609ZM52.9551 142.569C52.9551 145.449 53.3271 147.765 54.0711 149.517L61.1631 133.137C60.4191 132.585 59.5431 132.309 58.5351 132.309C56.7351 132.309 55.3551 133.185 54.3951 134.937C53.4351 136.689 52.9551 139.233 52.9551 142.569ZM58.5351 152.829C60.3351 152.829 61.7151 151.953 62.6751 150.201C63.6351 148.449 64.1151 145.905 64.1151 142.569C64.1151 139.641 63.7551 137.337 63.0351 135.657L55.8711 151.965C56.6151 152.541 57.5031 152.829 58.5351 152.829Z" fill="white"/>
<path d="M3.6 39.4697V36.7697H9.72V20.2097H4.86V17.5097H8.28C8.736 17.5097 9.084 17.3897 9.324 17.1497C9.588 16.8857 9.72 16.5257 9.72 16.0697V14.2697H12.78V36.7697H18.9V39.4697H3.6ZM32.3859 13.9097C34.1619 13.9097 35.6979 14.4377 36.9939 15.4937C38.2899 16.5257 39.2859 18.0137 39.9819 19.9577C40.6779 21.9017 41.0259 24.2057 41.0259 26.8697C41.0259 29.5337 40.6779 31.8377 39.9819 33.7817C39.2859 35.7257 38.2899 37.2257 36.9939 38.2817C35.6979 39.3137 34.1619 39.8297 32.3859 39.8297C30.6099 39.8297 29.0739 39.3137 27.7779 38.2817C26.4819 37.2257 25.4859 35.7257 24.7899 33.7817C24.0939 31.8377 23.7459 29.5337 23.7459 26.8697C23.7459 24.2057 24.0939 21.9017 24.7899 19.9577C25.4859 18.0137 26.4819 16.5257 27.7779 15.4937C29.0739 14.4377 30.6099 13.9097 32.3859 13.9097ZM26.8059 26.8697C26.8059 29.7497 27.1779 32.0657 27.9219 33.8177L35.0139 17.4377C34.2699 16.8857 33.3939 16.6097 32.3859 16.6097C30.5859 16.6097 29.2059 17.4857 28.2459 19.2377C27.2859 20.9897 26.8059 23.5337 26.8059 26.8697ZM32.3859 37.1297C34.1859 37.1297 35.5659 36.2537 36.5259 34.5017C37.4859 32.7497 37.9659 30.2057 37.9659 26.8697C37.9659 23.9417 37.6059 21.6377 36.8859 19.9577L29.7219 36.2657C30.4659 36.8417 31.3539 37.1297 32.3859 37.1297ZM53.9719 13.9097C55.7479 13.9097 57.2839 14.4377 58.5799 15.4937C59.8759 16.5257 60.8719 18.0137 61.5679 19.9577C62.2639 21.9017 62.6119 24.2057 62.6119 26.8697C62.6119 29.5337 62.2639 31.8377 61.5679 33.7817C60.8719 35.7257 59.8759 37.2257 58.5799 38.2817C57.2839 39.3137 55.7479 39.8297 53.9719 39.8297C52.1959 39.8297 50.6599 39.3137 49.3639 38.2817C48.0679 37.2257 47.0719 35.7257 46.3759 33.7817C45.6799 31.8377 45.3319 29.5337 45.3319 26.8697C45.3319 24.2057 45.6799 21.9017 46.3759 19.9577C47.0719 18.0137 48.0679 16.5257 49.3639 15.4937C50.6599 14.4377 52.1959 13.9097 53.9719 13.9097ZM48.3919 26.8697C48.3919 29.7497 48.7639 32.0657 49.5079 33.8177L56.5999 17.4377C55.8559 16.8857 54.9799 16.6097 53.9719 16.6097C52.1719 16.6097 50.7919 17.4857 49.8319 19.2377C48.8719 20.9897 48.3919 23.5337 48.3919 26.8697ZM53.9719 37.1297C55.7719 37.1297 57.1519 36.2537 58.1119 34.5017C59.0719 32.7497 59.5519 30.2057 59.5519 26.8697C59.5519 23.9417 59.1919 21.6377 58.4719 19.9577L51.3079 36.2657C52.0519 36.8417 52.9399 37.1297 53.9719 37.1297Z" fill="white"/>
<path d="M126.926 0.830078V1229.68H1674.31" stroke="#88A29E" stroke-width="0.25" stroke-miterlimit="10"/>
<path d="M339.685 1268.24V93.1865" stroke="#35615B" stroke-width="0.25" stroke-miterlimit="10"/>
<path d="M552.445 93.1865V1268.24" stroke="#35615B" stroke-width="0.25" stroke-miterlimit="10"/>
<path d="M765.205 93.1865V1268.24" stroke="#35615B" stroke-width="0.25" stroke-miterlimit="10"/>
<path d="M977.964 93.1865V1268.24" stroke="#35615B" stroke-width="0.25" stroke-miterlimit="10"/>
<path d="M1190.72 93.1865V1268.24" stroke="#35615B" stroke-width="0.25" stroke-miterlimit="10"/>
<path d="M1403.57 93.1865V1268.24" stroke="#35615B" stroke-width="0.25" stroke-miterlimit="10"/>
<path d="M1616.33 93.1865V1268.24" stroke="#35615B" stroke-width="0.25" stroke-miterlimit="10"/>
<path style="mix-blend-mode:screen" d="M1616.33 1162.49H339.685V528.276L552.445 801.286L765.204 598.71L977.964 677.974L1190.72 449.012L1403.57 730.851L1624.56 885.015L1616.33 1162.49Z" fill="url(#paint0_linear_231_683)"/>
<path d="M339.685 528.277L552.445 801.286L765.204 598.711L977.964 677.975L1190.72 449.013L1403.57 730.852L1624.56 885.016" stroke="#AFEBFF" stroke-width="2" stroke-linecap="round" stroke-linejoin="round"/>
<defs>
<linearGradient id="paint0_linear_231_683" x1="982.124" y1="1162.49" x2="982.124" y2="449.012" gradientUnits="userSpaceOnUse">
<stop offset="0.08"/>
<stop offset="0.25" stop-color="#010304"/>
<stop offset="0.4" stop-color="#030D0E"/>
<stop offset="0.54" stop-color="#061E20"/>
<stop offset="0.68" stop-color="#0A363A"/>
<stop offset="0.81" stop-color="#10545B"/>
<stop offset="0.94" stop-color="#177983"/>
<stop offset="1" stop-color="#1B8D98"/>
</linearGradient>
</defs>
</svg>
